<svg width="117" height="73" viewBox="0 0 117 73" fill="none" xmlns="http://www.w3.org/2000/svg">
<g clip-path="url(#clip0_124_599)">
<path d="M106.073 73H10.9272C4.87295 73 0 68.1235 0 62.0648V10.9352C0 4.87652 4.87295 0 10.9272 0H106.073C112.127 0 117 4.87652 117 10.9352V62.0648C117 68.1235 112.127 73 106.073 73Z" fill="#739AF0"/>
<path d="M101.692 70.2908H15.308C9.25369 70.2908 4.38074 65.4143 4.38074 59.3556V13.6444C4.38074 7.5857 9.25369 2.70918 15.308 2.70918H101.692C107.746 2.70918 112.619 7.5857 112.619 13.6444V59.3063C112.619 65.3651 107.746 70.2908 101.692 70.2908Z" fill="#ECF2FE"/>
<path d="M22.3467 15.3684H19.1965V43.1991H22.3467V15.3684Z" fill="#739AF0"/>
<path d="M27.5149 26.4514H24.3647V43.1991H27.5149V26.4514Z" fill="#739AF0"/>
<path d="M32.7325 19.5553H29.5823V43.2483H32.7325V19.5553Z" fill="#739AF0"/>
<path d="M37.9007 30.392H34.7505V43.1991H37.9007V30.392Z" fill="#739AF0"/>
<path d="M43.1182 25.6633H39.968V43.1991H43.1182V25.6633Z" fill="#739AF0"/>
<path d="M48.2865 36.7955H45.1363V43.1991H48.2865V36.7955Z" fill="#739AF0"/>
<path d="M53.504 22.2153H50.3538V43.1991H53.504V22.2153Z" fill="#739AF0"/>
<path d="M96.0808 35.3671C93.5705 43.1498 85.252 47.386 77.475 44.8738C69.698 42.3617 65.4649 34.0371 67.9752 26.2544C70.4855 18.4717 78.804 14.2355 86.581 16.7476L81.708 31.919L95.4901 24.8752L95.5393 24.8259C96.9668 28.0277 97.2621 31.722 96.0808 35.3671Z" fill="#739AF0"/>
<path d="M97.8036 22.166L97.7544 22.2152L83.9723 29.2591L88.8452 14.0877C93.0291 15.4669 96.1793 18.4717 97.8036 22.166Z" fill="#739AF0"/>
<path d="M71.5191 51.031H19.1965C18.655 51.031 18.212 50.5877 18.212 50.0459C18.212 49.5041 18.655 49.0607 19.1965 49.0607H71.5191C72.0606 49.0607 72.5036 49.5041 72.5036 50.0459C72.5036 50.5877 72.0606 51.031 71.5191 51.031Z" fill="#739AF0"/>
<path d="M96.8191 55.0702H18.9996C18.655 55.0702 18.4089 54.7746 18.4089 54.4791C18.4089 54.1343 18.7043 53.888 18.9996 53.888H96.8191C97.1637 53.888 97.4098 54.1835 97.4098 54.4791C97.4098 54.7746 97.1637 55.0702 96.8191 55.0702Z" fill="#739AF0"/>
<path d="M96.8191 59.5034H18.9996C18.655 59.5034 18.4089 59.2078 18.4089 58.9123C18.4089 58.5675 18.7043 58.3212 18.9996 58.3212H96.8191C97.1637 58.3212 97.4098 58.6167 97.4098 58.9123C97.4098 59.2078 97.1637 59.5034 96.8191 59.5034Z" fill="#739AF0"/>
</g>
<defs>
<clipPath id="clip0_124_599">
<rect width="117" height="73" fill="white"/>
</clipPath>
</defs>
</svg>
