<svg width="47" height="51" viewBox="0 0 47 51" fill="none" xmlns="http://www.w3.org/2000/svg">
<g clip-path="url(#clip0_124_576)">
<path d="M7.3358 45.2363C7.3358 45.2363 -6.23949 37.9621 8.92844 29.4756C8.92844 29.4756 7.63916 38.1894 8.92844 38.9472C10.2177 39.7049 10.5969 28.7936 10.5211 28.5663C10.5211 28.339 21.7453 24.0957 22.7313 24.4746C23.7172 24.8534 17.2708 34.325 19.091 33.4915C20.9111 32.5823 25.0823 23.4895 25.0823 23.4895C25.0823 23.4895 33.8797 22.3529 35.6998 25.1565C37.52 27.9601 38.9609 33.4158 35.6998 35.7647C32.4387 38.1137 24.8548 35.8405 25.5373 37.2802C26.2199 38.7198 33.5763 39.8564 34.7898 39.1745C34.7898 39.1745 30.1635 49.5553 24.3239 47.0548C18.8634 44.7059 15.0714 44.5543 14.8439 45.009C14.6164 45.4636 24.5514 46.9791 25.0823 50.4646C25.6132 53.9502 8.4734 51.9801 8.62508 48.7976C8.77676 45.5394 7.3358 45.2363 7.3358 45.2363Z" fill="#739AF0"/>
<path d="M7.25995 67.5135C6.1982 66.0738 2.70957 60.8455 3.99884 54.1017C4.90892 49.5553 7.48747 46.5244 9.00426 45.0847L9.91434 45.994C8.54923 47.2822 6.12236 50.0857 5.28812 54.2532C4.07468 60.4666 7.33579 65.316 8.32171 66.68L7.25995 67.5135Z" fill="#739AF0"/>
<path d="M-1.00653 44.4786C-1.00653 44.4786 8.85263 39.1745 -2.14412 33.1127C-2.14412 33.1127 -1.23405 39.4018 -2.14412 39.9322C-3.0542 40.4626 -3.35756 32.5823 -3.35756 32.4307C-3.35756 32.2792 -11.4724 29.1725 -12.2308 29.4756C-12.9892 29.7787 -8.21129 35.3859 -9.57641 35.992C-10.9415 36.5982 -15.2644 29.0967 -15.2644 29.0967C-15.2644 29.0967 -20.2698 27.8844 -21.5591 29.9302C-22.8483 31.9761 -23.9101 35.9163 -21.5591 37.5833C-19.208 39.2503 -13.7476 37.5833 -14.2026 38.7199C-14.6577 39.7807 -20.0423 40.5384 -20.8765 40.0838C-20.8765 40.0838 -17.2362 48.1914 -13.2926 45.7667C-9.34889 43.342 -5.55691 43.5693 -5.55691 43.9482C-5.55691 44.327 -13.4442 45.6909 -13.8234 48.2672C-14.2026 50.8435 -1.76492 49.328 -1.9166 47.0548C-2.06828 44.7817 -1.00653 44.4786 -1.00653 44.4786Z" fill="#739AF0"/>
<path d="M-1.00654 60.6939C-0.248138 59.6331 2.33041 55.8445 1.34449 50.995C0.737776 47.661 -1.23405 45.4636 -2.29581 44.4786L-2.90253 45.1605C-1.91661 46.0698 -0.0964594 48.1157 0.434418 51.1466C1.26865 55.6929 -1.00654 59.1785 -1.76493 60.0878L-1.00654 60.6939Z" fill="#739AF0"/>
<path d="M6.34994 29.2483C6.34994 29.2483 -11.9274 19.3978 8.47345 8.10769C8.47345 8.10769 6.80498 19.7767 8.47345 20.7617C10.1419 21.7468 10.6728 7.12264 10.6728 6.81955C10.6728 6.51646 25.6891 0.757737 27.0542 1.28815C28.4193 1.81855 19.6219 12.2752 22.1246 13.336C24.6273 14.3968 32.7421 0.530419 32.7421 0.530419C32.7421 0.530419 41.9946 -1.66699 44.4215 2.12165C46.8483 5.91028 48.8202 13.1845 44.4215 16.3669C40.0228 19.5494 29.9361 16.4427 30.7703 18.4128C31.6804 20.4586 41.6154 21.8225 43.1322 20.9133C43.1322 20.9133 36.3066 35.9163 29.026 31.4457C21.7454 26.9751 14.1614 27.7328 14.7681 28.0359C15.3749 28.4148 30.6945 31.9003 31.4529 36.5982C32.2113 41.2961 7.86673 38.1894 8.09425 33.9462C8.32177 29.7029 6.34994 29.2483 6.34994 29.2483Z" fill="#4D64B7"/>
<path d="M6.19827 59.2542C4.75731 57.2841 0.0552564 50.3131 1.79957 41.2203C2.93716 35.0828 6.50162 30.991 8.5493 29.1725L9.76273 30.4606C7.94258 32.2034 4.60563 35.992 3.54388 41.5992C1.95125 49.9342 6.27411 56.4507 7.63922 58.2692L6.19827 59.2542Z" fill="#4D64B7"/>
</g>
<defs>
<clipPath id="clip0_124_576">
<rect width="70" height="76" fill="white" transform="translate(-23)"/>
</clipPath>
</defs>
</svg>
