<svg width="308" height="212" viewBox="0 0 308 212" fill="none" xmlns="http://www.w3.org/2000/svg">
<path d="M63.558 148.727C53.6626 148.727 45.6608 140.738 45.6608 130.859H81.3941C81.4552 140.738 73.4534 148.727 63.558 148.727Z" fill="#6984E3"/>
<path d="M48.2873 150.373H78.8286C79.2562 150.373 79.5616 150.068 79.5616 149.641V149.398C79.5616 148.971 79.2562 148.666 78.8286 148.666H48.2873C47.8597 148.666 47.5543 148.971 47.5543 149.398V149.641C47.6154 150.068 47.9208 150.373 48.2873 150.373Z" fill="#9FC1F4"/>
<path d="M110.408 12.6187H100.757V140.189H110.408V12.6187Z" fill="#739AF0"/>
<path d="M126.351 63.4763H116.7V140.25H126.351V63.4763Z" fill="#739AF0"/>
<path d="M142.232 31.7665H132.581V140.25H142.232V31.7665Z" fill="#739AF0"/>
<path d="M158.114 81.4655H148.463V140.189H158.114V81.4655Z" fill="#739AF0"/>
<path d="M173.995 59.8784H164.344V140.25H173.995V59.8784Z" fill="#739AF0"/>
<path d="M189.877 110.858H180.226V140.25H189.877V110.858Z" fill="#739AF0"/>
<path d="M205.758 44.0236H196.107V140.25H205.758V44.0236Z" fill="#739AF0"/>
<path d="M244.424 54.1039C264.092 53.7401 282.295 70.6547 287.365 86.4174C298.176 120.186 253.158 162.624 225.671 181.479C156.098 229.131 77.0572 209.063 36.4983 198.757C3.51363 190.391 0.398409 182.388 0.0319126 178.811C-0.884327 168.687 18.1124 157.531 33.383 153.106C51.8911 147.71 58.4269 154.197 76.0798 150.681C98.4972 146.194 96.909 132.251 122.014 122.247C161.657 106.424 185.357 121.035 199.528 103.15C208.507 91.8131 202.277 81.8705 214.737 68.5328C216.814 66.229 228.298 54.407 244.424 54.1039Z" fill="#739AF0"/>
<path d="M262.749 91.4052C256.762 123.603 222.495 175.009 67.1618 183.607C60.1373 183.973 51.1582 174.034 49.6311 167.143L52.3187 172.326C50.7917 165.374 54.5788 158.301 61.2368 155.8L172.957 113.175C173.568 112.931 174.118 112.687 174.667 112.382L241.736 76.0992C252.364 70.428 264.948 79.5141 262.749 91.4052Z" fill="#4D64B7"/>
<path d="M201.544 53.9023C201.544 53.9023 189.694 90.9784 168.193 93.3566C168.193 93.3566 173.812 94.6372 173.568 97.0764C173.385 99.5156 179.371 98.8448 179.371 98.8448L189.449 97.1374C189.51 97.1374 208.935 58.5978 201.544 53.9023Z" fill="#DC6060"/>
<path d="M217.486 44.9992C217.486 44.9992 205.942 47.7433 202.826 51.4631C199.711 55.1829 189.571 93.9664 180.714 97.1984C171.857 100.43 199.1 93.2956 199.1 93.2956L205.636 71.3427L210.462 59.8784L219.135 49.0239L224.633 45.2431L221.64 42.743L217.486 44.9992Z" fill="#B45656"/>
<path d="M224.022 45.9139C224.022 45.9139 204.353 52.6217 199.528 66.8302C194.702 81.0386 189.816 95.4909 183.219 97.3203C176.622 99.2107 198.489 104.089 198.489 104.089L212.111 101.772L213.882 84.4535L220.846 67.7449L230.802 52.8047L228.053 48.4141L224.022 45.9139Z" fill="white"/>
<path d="M239.232 39.2061C239.232 39.2061 244.851 43.0478 243.935 45.792C243.019 48.5971 215.409 102.626 215.226 103.052C215.043 103.479 209.912 105.065 209.912 105.065C209.912 105.065 205.392 66.5253 228.359 51.707L230.314 50.0606V47.6824L233.917 43.4137L239.232 39.2061Z" fill="#DC6060"/>
<path d="M214.799 55.6098C214.799 55.6098 226.282 52.9266 227.809 52.1339C229.336 51.4021 239.842 41.2794 239.842 41.0355C239.842 40.7916 237.094 32.9861 235.628 32.1933C234.712 31.7055 233.979 30.12 233.49 28.9614C233.184 28.2296 233.001 27.6198 233.001 27.6198L231.841 27.8637L226.526 28.9614L220.907 35.1204L220.968 37.1937L221.212 43.8406C221.212 43.8406 222.006 45.1212 222.495 46.5237C222.923 47.8043 223.106 49.2068 222.251 49.8776C220.357 51.2192 215.898 52.9267 214.799 55.6098Z" fill="#F4A6A8"/>
<path d="M221.212 43.8406C221.212 43.8406 222.006 45.1212 222.495 46.5237C230.497 44.6943 230.985 31.0347 231.535 30.9128C232.085 30.8518 233.307 29.3883 233.307 29.3883L233.429 28.9614L233.917 27.193L232.513 27.4979L231.78 27.8638L231.047 28.1687L229.336 29.8151L222.678 34.8155L220.846 37.1328L221.212 43.8406Z" fill="#EA9698"/>
<path d="M205.697 19.4485C205.697 19.4485 209.24 48.3531 218.952 46.2798C228.664 44.2065 232.268 29.998 230.375 26.0953C228.481 22.1926 223.106 11.521 220.052 12.0089C216.998 12.4967 205.636 15.5457 205.697 19.4485Z" fill="#F4A6A8"/>
<path d="M206.247 17.9849C206.247 17.9849 198.734 14.57 202.704 7.74025C202.704 7.74025 202.643 10.2404 203.559 10.1795C204.476 10.1185 203.315 6.88652 204.781 5.11809C204.781 5.11809 204.903 7.74024 205.758 7.8622C205.758 7.8622 205.27 4.32534 206.491 3.65456C206.491 3.65456 206.675 5.91083 208.263 5.66691C209.851 5.42299 217.792 3.83751 221.212 1.15437C224.633 -1.52876 234.711 3.10574 233.856 6.15475C233.856 6.15475 239.72 8.41102 238.621 19.9973C237.521 31.5835 235.628 31.5225 236.788 32.6202C237.949 33.7178 235.689 33.6569 233.795 30.7908C231.841 27.9247 228.42 21.3998 226.282 23.839C224.144 26.2782 226.099 27.01 224.083 26.949C222.067 26.8881 222.984 24.083 220.052 23.9C217.12 23.7171 217.547 21.2169 218.525 18.8387C219.38 16.3994 210.95 14.509 206.247 17.9849Z" fill="#233862"/>
<path d="M226.893 24.5098C226.893 24.5098 230.68 18.8387 232.146 25.1196C233.612 31.3396 227.992 31.1567 227.992 31.1567L226.893 24.5098Z" fill="#FFBBBD"/>
<path d="M68.5667 166.411L88.052 167.021L94.2825 167.204C94.2825 167.204 97.7031 167.326 102.345 167.265C110.836 167.143 123.602 166.411 127.817 163.362C134.353 158.606 206.247 133.36 215.287 136.226C224.327 139.092 215.104 106.65 215.104 106.65L186.945 106.955C186.945 106.955 184.318 108.175 180.104 110.126L180.043 113.48L175.095 119.151L150.173 130.799L137.529 130.677C130.566 134.213 125.496 136.958 124.885 137.811C123.908 139.153 121.342 141.226 118.166 142.995C115.356 144.58 112.18 145.922 109.248 146.287C108.148 146.409 107.049 146.47 106.132 146.287C99.7799 145.19 83.4708 153.483 82.2492 154.154C81.0886 154.947 68.5667 166.411 68.5667 166.411Z" fill="#213F7A"/>
<path d="M87.991 167.021L94.2214 167.204C94.2214 167.204 97.642 167.326 102.284 167.265C115.6 161.35 118.166 143.361 118.227 143.056L112.241 143.726L109.309 146.349L94.0381 160.13L88.4796 166.655C88.5407 166.655 88.2964 166.777 87.991 167.021Z" fill="#233862"/>
<path d="M146.203 105.126C146.203 105.126 120.853 100.43 115.6 108.358C110.347 116.285 99.9632 131.164 94.4658 133.543C88.9683 135.982 79.6838 142.934 79.8059 145.19C79.9281 147.446 76.6296 152.203 76.6296 152.203L81.5162 154.825L86.9526 159.337L89.3959 166.411L92.9387 167.204C92.9387 167.204 124.335 140.616 128.794 128.115C128.794 128.115 129.833 130.677 143.454 131.103C157.076 131.53 173.751 119.334 173.751 119.334L183.28 114.822L180.348 106.711L146.203 105.126Z" fill="#213F7A"/>
<path d="M137.529 130.738C150.417 124.213 169.842 115.005 180.104 110.187L180.165 107.809L161.84 111.468L137.529 130.738Z" fill="#233862"/>
<path d="M76.5685 145.007C76.5685 145.007 68.6277 143.665 66.6731 145.312C64.7184 146.958 68.7499 148.117 68.7499 148.117L72.0483 147.812L75.469 146.958L76.5685 145.007Z" fill="#233862"/>
<path d="M79.5616 148.666C79.5616 148.666 83.8985 145.678 81.7606 144.031C79.6838 142.385 76.9961 144.336 76.935 144.397C76.874 144.458 71.6208 147.629 71.6208 147.629C71.6208 147.629 74.6139 150.312 74.9193 150.373C75.1636 150.495 79.5616 148.666 79.5616 148.666Z" fill="white"/>
<path d="M60.0151 155.191C60.0151 155.191 69.6662 143.543 68.5667 144.458C67.4672 145.373 45.7218 140.616 45.7218 140.616C45.7218 140.616 38.0254 125.432 36.6205 124.03C35.2766 122.627 31.3673 122.688 30.8787 124.03C30.3289 125.371 29.5959 140.129 37.048 153.727C44.5001 167.326 47.4932 178.241 49.4478 177.936C51.4025 177.631 59.5875 175.009 61.2368 171.472C62.886 167.936 60.0151 155.191 60.0151 155.191Z" fill="#EBF3FF"/>
<path d="M68.5667 144.458C68.5667 144.458 68.8111 139.336 66.6732 139.58C64.5353 139.824 60.8092 139.946 60.3206 140.555C59.8319 141.165 63.4358 145.922 63.4358 145.922L68.5667 144.458Z" fill="#EBF3FF"/>
<path d="M43.0342 146.836C43.0342 146.836 46.3326 159.581 55.0064 165.496C63.6801 171.411 66.0623 180.985 69.1165 181.961C70.5825 182.449 72.9036 183.729 75.2858 184.156C77.7902 184.644 80.3557 184.156 82.1882 180.863C85.731 174.399 86.5861 171.228 89.2127 169.826C91.8392 168.362 92.6944 163.301 91.7782 161.655C90.8619 160.008 88.4797 149.397 85.9142 148.971C83.3488 148.544 77.4848 148.849 77.4848 148.849C77.4848 148.849 66.4899 146.409 63.1915 142.141C59.893 137.872 52.4409 124.7 46.3937 130.859C45.9661 131.286 45.5386 131.774 45.2332 132.262C40.652 138.482 43.0342 146.836 43.0342 146.836Z" fill="white"/>
<path d="M211.072 111.59C211.072 111.59 210.706 135.677 216.875 137.201C222.984 138.787 233.001 126.103 237.033 127.871C241.064 129.64 234.345 124.762 235.811 120.859C237.277 116.956 241.369 107.748 239.598 104.333C237.827 100.918 211.072 111.59 211.072 111.59Z" fill="#DC6060"/>
<path d="M240.026 106.528C240.026 106.528 237.033 123.481 211.073 112.87L218.28 107.626L232.024 104.577L240.026 106.528Z" fill="#B45656"/>
<path d="M243.019 45.792C243.752 45.853 244.546 46.0969 245.218 46.4018C248.638 47.6824 251.692 49.6947 254.258 52.2559C257.007 55.061 258.412 57.8661 259.206 61.7078C260.916 69.5743 259.206 77.8676 255.846 85.0023C251.815 93.5396 245.462 100.735 239.048 107.626C237.827 108.968 236.483 110.309 234.834 111.163C232.94 112.078 230.802 112.261 228.664 112.383C223.533 112.626 218.402 112.809 213.271 112.87C206.858 112.931 200.383 112.87 194.214 111.163C193.236 110.858 192.198 110.553 191.465 109.76C190.61 108.846 190.427 107.565 190.304 106.345C190.121 104.211 189.999 102.138 190.06 100.003C190.06 99.6376 190.121 99.2717 190.304 99.0278C190.549 98.7229 190.976 98.7229 191.404 98.7229C199.528 98.9058 207.713 99.3937 215.837 98.6619C219.441 98.357 223.167 97.7472 226.099 95.6739C228.909 93.7225 230.741 90.7345 232.146 87.6245C234.223 83.1729 235.75 78.4164 235.689 73.477C235.628 68.7206 234.162 63.9641 234.345 59.2076C234.467 55.5488 235.628 51.951 237.643 48.841C238.56 47.4384 239.781 46.0359 241.431 45.67C242.041 45.731 242.53 45.731 243.019 45.792Z" fill="#DC6060"/>
<path d="M239.109 62.5616L228.054 65.7935L217.975 91.5882L214.188 101.467L224.083 102.626L235.078 93.7835L239.904 75.9772L239.109 62.5616Z" fill="#DC6060"/>
<path d="M194.397 110.187C194.397 110.187 158.236 112.017 156.831 111.224C155.426 110.431 153.227 109.151 153.227 109.151L153.838 107.443L155.548 108.175L157.564 109.455L191.404 108.724L194.397 110.187Z" fill="#EBF3FF"/>
<path d="M157.564 109.394L142.232 101.65L164.1 99.4547L182.852 105.065L189.144 105.187L194.397 110.187L186.884 109.577L157.747 110.431L157.564 109.394Z" fill="white"/>
<path d="M156.892 111.224L140.339 72.2574L121.159 68.2937L134.963 102.382L156.892 111.224Z" fill="white"/>
<path d="M170.147 93.3566C170.147 93.3566 167.337 92.8078 166.055 92.8688C164.772 92.9298 164.283 91.8931 163.001 92.32C161.718 92.7468 157.137 92.8078 156.037 93.7225C154.938 94.6372 152.983 99.0888 155.854 102.382L156.281 102.321C156.281 102.321 156.22 103.296 156.831 103.052C157.442 102.809 158.908 102.565 158.542 100.857C158.175 99.1497 158.664 97.0764 159.519 96.5886C160.374 96.1007 160.069 97.6252 160.069 97.6252C160.069 97.6252 157.931 102.748 158.725 103.235C159.519 103.784 160.802 104.333 162.451 99.5766C164.039 94.8811 180.959 102.443 180.959 102.443L170.147 93.3566Z" fill="#F4A6A8"/>
<path d="M173.14 95.9178C173.14 95.9178 162.817 95.247 162.267 96.1617C161.718 97.0764 160.496 103.113 160.496 103.113L165.994 99.0278L168.925 97.1374L173.14 95.9178Z" fill="#EA9698"/>
<path d="M190.488 99.5156C190.488 99.5156 176.072 95.308 174.667 95.5519C173.262 95.7958 172.346 96.4056 169.597 96.4056C166.849 96.4056 164.161 96.4056 163.428 96.9544C162.695 97.5033 159.397 103.54 160.496 104.638C161.535 105.736 162.573 105.248 162.573 105.248C162.573 105.248 163.062 107.626 164.589 105.553C166.116 103.479 165.871 101.772 166.788 101.589L167.704 102.077C167.704 102.077 164.283 104.699 165.077 105.614C165.871 106.589 166.727 106.101 169.109 104.699C171.491 103.296 174.301 106.894 176.561 106.711C178.76 106.528 191.037 107.565 192.137 107.382C193.236 107.199 190.488 99.5156 190.488 99.5156Z" fill="#F4A6A8"/>
<path d="M162.634 105.126C162.634 105.126 162.878 101.833 163.245 101.711Z" fill="#231F20"/>
<path d="M167.765 102.077C167.765 102.077 168.376 101.955 168.254 101.772C168.131 101.65 167.643 101.589 167.643 101.589L167.398 101.528H167.093H166.91L167.765 102.077Z" fill="#E2915A"/>
<path d="M166.849 101.528C166.849 101.528 168.07 101.345 168.193 101.65Z" fill="#231F20"/>
<path d="M157.137 96.7105C157.137 96.7105 155.121 97.2594 156.281 102.382C156.281 102.382 155.548 97.5033 157.137 96.7105Z" fill="#E2915A"/>
<path d="M156.281 102.382C156.281 102.382 155.609 97.1374 157.381 96.6495C157.381 96.6495 155.365 96.7715 156.281 102.382Z" fill="#231F20"/>
<path d="M253.647 53.7194C253.647 53.7194 245.523 53.1096 239.781 61.9518C239.781 61.9518 245.767 54.4512 253.647 53.7194Z" fill="#B45656"/>
<path d="M239.793 64C239.793 64 229.653 95.2219 216.032 98.027C216.032 98.027 228.371 101.259 239.793 64Z" fill="#B45656"/>
<path d="M243.935 45.792C243.935 45.792 232.635 58.049 229.275 59.8784C225.977 61.7078 212.844 81.7703 213.272 84.5754C213.272 84.5754 227.809 61.281 230.314 60.5492C232.879 59.8174 243.935 45.792 243.935 45.792Z" fill="#B45656"/>
<path d="M43.0341 146.836C43.0341 146.836 46.3326 159.581 55.0063 165.496C63.68 171.411 66.0623 180.985 69.1164 181.961C70.5824 182.449 72.9035 183.729 75.2857 184.156C75.6522 184.034 75.9576 183.912 76.1409 183.79C77.4847 182.937 82.6157 175.985 76.5685 173.241C70.5213 170.497 60.5648 154.886 60.1983 151.898C59.8929 148.91 58.1215 146.775 53.8457 137.994C50.364 130.859 46.4547 131.713 45.1109 132.262C40.6519 138.482 43.0341 146.836 43.0341 146.836Z" fill="#FFBBBD"/>
<path d="M45.3552 132.201C47.1877 132.201 49.8753 133.238 52.3187 138.299C56.6555 147.08 58.3658 149.215 58.6712 152.203C58.9767 155.191 68.9942 170.802 75.0414 173.546C81.0275 176.29 76.0798 183.12 74.6138 184.034C74.7971 184.095 74.9803 184.095 75.2247 184.156C75.5911 184.034 75.8966 183.912 76.0798 183.79C77.4236 182.937 82.5546 175.985 76.5074 173.241C70.4602 170.497 60.5037 154.886 60.1372 151.898C59.8318 148.91 58.0604 146.775 53.7846 137.994C50.4862 131.347 46.8823 131.652 45.3552 132.201Z" fill="#EA9698"/>
<path d="M52.8074 130.189C52.8074 130.189 57.5107 136.47 57.0832 137.506C57.0221 137.506 55.1896 133.604 52.8074 130.189Z" fill="#231F20"/>
<path d="M36.2539 123.725C36.2539 123.725 34.2993 130.372 36.1318 133.726C36.1318 133.726 33.7495 129.64 36.2539 123.725Z" fill="#231F20"/>
<path d="M60.9314 125.127C60.9314 125.127 72.1095 119.151 59.5875 112.26C59.5875 112.26 60.6259 119.395 59.5875 120.005C58.5491 120.615 58.2437 111.651 58.2437 111.468C58.2437 111.285 49.0813 107.809 48.2262 108.114C47.371 108.419 52.6852 116.224 51.2192 115.492C49.7532 114.761 46.3326 107.26 46.3326 107.26C46.3326 107.26 39.1248 106.284 37.5978 108.602C36.1318 110.919 34.9101 115.37 37.5978 117.322C40.2854 119.273 46.4548 117.383 45.905 118.602C45.3553 119.822 39.3081 120.676 38.3308 120.127C38.3308 120.127 42.1179 128.603 46.9434 126.591C51.4025 124.7 54.5177 124.579 54.7009 124.944C54.8842 125.31 46.7602 126.53 46.2715 129.396C45.8439 132.262 59.893 130.616 59.7708 128.054C59.7097 125.432 60.9314 125.127 60.9314 125.127Z" fill="#739AF0"/>
<path d="M60.9924 143.421C61.9086 142.263 64.7184 137.933 63.68 132.445C62.947 128.725 60.8091 126.225 59.5875 125.066L58.8545 125.859C60.0151 126.896 61.9697 129.213 62.6416 132.628C63.6189 137.75 60.9924 141.714 60.1372 142.812L60.9924 143.421Z" fill="#739AF0"/>
<path d="M67.7725 124.579C67.7725 124.579 59.7096 120.249 68.7498 115.249C68.7498 115.249 68.0168 120.432 68.7498 120.859C69.4828 121.286 69.7271 114.822 69.7271 114.7C69.7271 114.578 76.3852 112.017 76.996 112.26C77.6068 112.504 73.6975 117.139 74.797 117.627C75.8965 118.115 79.5004 111.956 79.5004 111.956C79.5004 111.956 83.5929 110.98 84.6924 112.626C85.7919 114.273 86.6471 117.505 84.6924 118.907C82.7378 120.31 78.2787 118.907 78.6452 119.822C79.0117 120.737 83.4707 121.347 84.1427 120.92C84.1427 120.92 81.1496 127.567 77.9122 125.615C74.6748 123.664 71.5596 123.786 71.6207 124.091C71.6207 124.396 78.0955 125.554 78.4009 127.628C78.7063 129.701 68.5055 128.481 68.6277 126.652C68.6277 124.761 67.7725 124.579 67.7725 124.579Z" fill="#739AF0"/>
<path d="M67.7114 137.811C67.0395 136.958 65.0238 133.848 65.7568 129.823C66.3065 127.14 67.8336 125.31 68.7498 124.457L69.2996 125.005C68.5055 125.798 67.0395 127.445 66.5508 129.945C65.8178 133.665 67.7725 136.531 68.3833 137.323L67.7114 137.811Z" fill="#739AF0"/>
<path d="M61.7254 112.078C61.7254 112.078 76.6906 104.028 59.954 94.7591C59.954 94.7591 61.3589 104.333 59.954 105.187C58.5491 106.041 58.1215 93.9664 58.1826 93.7835C58.2437 93.6005 45.8439 88.844 44.7444 89.2709C43.6449 89.6978 50.7916 98.296 48.7759 99.1497C46.7601 100.003 40.1021 88.6611 40.1021 88.6611C40.1021 88.6611 32.5279 86.8317 30.5121 89.9417C28.4964 93.0517 26.9083 99.0278 30.5121 101.589C34.116 104.15 42.4233 101.65 41.6903 103.296C40.9573 104.943 32.7722 106.101 31.5505 105.37C31.5505 105.37 37.1091 117.688 43.0952 114.029C49.0813 110.37 55.3117 110.98 54.823 111.285C54.3344 111.59 41.7514 114.456 41.1405 118.298C40.5297 122.139 60.5037 119.456 60.3205 115.98C60.1372 112.504 61.7254 112.078 61.7254 112.078Z" fill="#4D64B7"/>
<path d="M61.8476 136.653C63.0692 135.067 66.8563 129.335 65.4514 121.895C64.4741 116.895 61.6032 113.541 59.954 112.017L58.9767 113.053C60.5038 114.456 63.1914 117.566 64.0465 122.2C65.3904 129.03 61.8476 134.396 60.687 135.86L61.8476 136.653Z" fill="#4D64B7"/>
</svg>
