<svg width="100" height="100" viewBox="0 0 100 100" fill="none" xmlns="http://www.w3.org/2000/svg">
<path d="M68.75 50.5175L40.8838 78.3838C40.648 78.6115 40.3322 78.7374 40.0045 78.7346C39.6768 78.7317 39.3632 78.6003 39.1315 78.3685C38.8997 78.1368 38.7683 77.8232 38.7654 77.4955C38.7626 77.1678 38.8886 76.852 39.1162 76.6162L66.9825 48.75L60.7325 42.5L29.1163 74.1162C28.8818 74.3506 28.7501 74.6685 28.75 75V87.5C28.75 87.8315 28.8817 88.1495 29.1161 88.3839C29.3505 88.6183 29.6685 88.75 30 88.75H42.5C42.8315 88.7499 43.1494 88.6182 43.3838 88.3838L75 56.7675L68.75 50.5175Z" fill="#ECF2FE"/>
<path d="M81.7675 50L88.3838 43.3838C88.6181 43.1493 88.7497 42.8315 88.7497 42.5C88.7497 42.1686 88.6181 41.8507 88.3838 41.6163L75.8838 29.1163C75.6493 28.8819 75.3315 28.7503 75 28.7503C74.6685 28.7503 74.3507 28.8819 74.1162 29.1163L67.5 35.7325L81.7675 50Z" fill="#ECF2FE"/>
<path d="M62.4908 40.7361L65.7227 37.5043L79.9882 51.7698L76.7563 55.0016L62.4908 40.7361Z" fill="#ECF2FE"/>
<path d="M53.75 16.25H48.75V12.5C48.75 12.1685 48.6183 11.8505 48.3839 11.6161C48.1495 11.3817 47.8315 11.25 47.5 11.25C47.1685 11.25 46.8505 11.3817 46.6161 11.6161C46.3817 11.8505 46.25 12.1685 46.25 12.5V16.25H40V12.5C40 12.1685 39.8683 11.8505 39.6339 11.6161C39.3995 11.3817 39.0815 11.25 38.75 11.25C38.4185 11.25 38.1005 11.3817 37.8661 11.6161C37.6317 11.8505 37.5 12.1685 37.5 12.5V16.25H31.25V12.5C31.25 12.1685 31.1183 11.8505 30.8839 11.6161C30.6495 11.3817 30.3315 11.25 30 11.25C29.6685 11.25 29.3505 11.3817 29.1161 11.6161C28.8817 11.8505 28.75 12.1685 28.75 12.5V16.25H22.5V12.5C22.5 12.1685 22.3683 11.8505 22.1339 11.6161C21.8995 11.3817 21.5815 11.25 21.25 11.25C20.9185 11.25 20.6005 11.3817 20.3661 11.6161C20.1317 11.8505 20 12.1685 20 12.5V16.25H15C14.0054 16.25 13.0516 16.6451 12.3483 17.3483C11.6451 18.0516 11.25 19.0054 11.25 20V70C11.25 70.9946 11.6451 71.9484 12.3483 72.6516C13.0516 73.3549 14.0054 73.75 15 73.75H53.75C54.7446 73.75 55.6984 73.3549 56.4016 72.6516C57.1049 71.9484 57.5 70.9946 57.5 70V20C57.5 19.0054 57.1049 18.0516 56.4016 17.3483C55.6984 16.6451 54.7446 16.25 53.75 16.25ZM55 70C55 70.3315 54.8683 70.6495 54.6339 70.8839C54.3995 71.1183 54.0815 71.25 53.75 71.25H15C14.6685 71.25 14.3505 71.1183 14.1161 70.8839C13.8817 70.6495 13.75 70.3315 13.75 70V20C13.75 19.6685 13.8817 19.3505 14.1161 19.1161C14.3505 18.8817 14.6685 18.75 15 18.75H20V22.5C20 22.8315 20.1317 23.1495 20.3661 23.3839C20.6005 23.6183 20.9185 23.75 21.25 23.75C21.5815 23.75 21.8995 23.6183 22.1339 23.3839C22.3683 23.1495 22.5 22.8315 22.5 22.5V18.75H28.75V22.5C28.75 22.8315 28.8817 23.1495 29.1161 23.3839C29.3505 23.6183 29.6685 23.75 30 23.75C30.3315 23.75 30.6495 23.6183 30.8839 23.3839C31.1183 23.1495 31.25 22.8315 31.25 22.5V18.75H37.5V22.5C37.5 22.8315 37.6317 23.1495 37.8661 23.3839C38.1005 23.6183 38.4185 23.75 38.75 23.75C39.0815 23.75 39.3995 23.6183 39.6339 23.3839C39.8683 23.1495 40 22.8315 40 22.5V18.75H46.25V22.5C46.25 22.8315 46.3817 23.1495 46.6161 23.3839C46.8505 23.6183 47.1685 23.75 47.5 23.75C47.8315 23.75 48.1495 23.6183 48.3839 23.3839C48.6183 23.1495 48.75 22.8315 48.75 22.5V18.75H53.75C54.0815 18.75 54.3995 18.8817 54.6339 19.1161C54.8683 19.3505 55 19.6685 55 20V70Z" fill="#506CCF"/>
<path d="M50 41.25H18.75C18.4185 41.25 18.1005 41.3817 17.8661 41.6161C17.6317 41.8505 17.5 42.1685 17.5 42.5C17.5 42.8315 17.6317 43.1495 17.8661 43.3839C18.1005 43.6183 18.4185 43.75 18.75 43.75H50C50.3315 43.75 50.6495 43.6183 50.8839 43.3839C51.1183 43.1495 51.25 42.8315 51.25 42.5C51.25 42.1685 51.1183 41.8505 50.8839 41.6161C50.6495 41.3817 50.3315 41.25 50 41.25Z" fill="#506CCF"/>
<path d="M50 31.25H18.75C18.4185 31.25 18.1005 31.3817 17.8661 31.6161C17.6317 31.8505 17.5 32.1685 17.5 32.5C17.5 32.8315 17.6317 33.1495 17.8661 33.3839C18.1005 33.6183 18.4185 33.75 18.75 33.75H50C50.3315 33.75 50.6495 33.6183 50.8839 33.3839C51.1183 33.1495 51.25 32.8315 51.25 32.5C51.25 32.1685 51.1183 31.8505 50.8839 31.6161C50.6495 31.3817 50.3315 31.25 50 31.25Z" fill="#506CCF"/>
<path d="M50 51.25H18.75C18.4185 51.25 18.1005 51.3817 17.8661 51.6161C17.6317 51.8505 17.5 52.1685 17.5 52.5C17.5 52.8315 17.6317 53.1495 17.8661 53.3839C18.1005 53.6183 18.4185 53.75 18.75 53.75H50C50.3315 53.75 50.6495 53.6183 50.8839 53.3839C51.1183 53.1495 51.25 52.8315 51.25 52.5C51.25 52.1685 51.1183 51.8505 50.8839 51.6161C50.6495 51.3817 50.3315 51.25 50 51.25Z" fill="#506CCF"/>
<path d="M50 61.25H18.75C18.4185 61.25 18.1005 61.3817 17.8661 61.6161C17.6317 61.8505 17.5 62.1685 17.5 62.5C17.5 62.8315 17.6317 63.1495 17.8661 63.3839C18.1005 63.6183 18.4185 63.75 18.75 63.75H50C50.3315 63.75 50.6495 63.6183 50.8839 63.3839C51.1183 63.1495 51.25 62.8315 51.25 62.5C51.25 62.1685 51.1183 61.8505 50.8839 61.6161C50.6495 61.3817 50.3315 61.25 50 61.25Z" fill="#506CCF"/>
</svg>
