<svg width="100" height="100" viewBox="0 0 100 100" fill="none" xmlns="http://www.w3.org/2000/svg">
<path d="M30.94 43.75L26.4962 63.75H84.0575L88.5025 43.75H30.94Z" fill="#ECF2FE"/>
<path d="M26.5 66.25L31.2825 87.7712C31.3441 88.0484 31.4982 88.2963 31.7195 88.4742C31.9408 88.6521 32.2161 88.7494 32.5 88.75H87.5C87.6873 88.7502 87.8722 88.7082 88.0411 88.6273C88.21 88.5464 88.3585 88.4286 88.4758 88.2825C88.593 88.1365 88.676 87.966 88.7184 87.7836C88.7609 87.6012 88.7619 87.4116 88.7213 87.2288L84.0575 66.25H26.5Z" fill="#ECF2FE"/>
<path d="M88.75 41.25V28.75C88.75 28.4185 88.6183 28.1005 88.3839 27.8661C88.1495 27.6317 87.8315 27.5 87.5 27.5H32.5C32.1685 27.5 31.8505 27.6317 31.6161 27.8661C31.3817 28.1005 31.25 28.4185 31.25 28.75V41.25H88.75Z" fill="#ECF2FE"/>
<path d="M56.25 20H50V18.75C50 18.4185 49.8683 18.1005 49.6339 17.8661C49.3995 17.6317 49.0815 17.5 48.75 17.5H43.0212C42.7273 15.7509 41.8229 14.1627 40.4689 13.0172C39.1148 11.8717 37.3986 11.2432 35.625 11.2432C33.8514 11.2432 32.1352 11.8717 30.7811 13.0172C29.4271 14.1627 28.5227 15.7509 28.2288 17.5H22.5C22.1685 17.5 21.8505 17.6317 21.6161 17.8661C21.3817 18.1005 21.25 18.4185 21.25 18.75V20H15C14.0054 20 13.0516 20.3951 12.3483 21.0983C11.6451 21.8016 11.25 22.7554 11.25 23.75V70C11.25 70.9945 11.6451 71.9484 12.3483 72.6516C13.0516 73.3549 14.0054 73.75 15 73.75H56.25C57.2446 73.75 58.1984 73.3549 58.9016 72.6516C59.6049 71.9484 60 70.9945 60 70V23.75C60 22.7554 59.6049 21.8016 58.9016 21.0983C58.1984 20.3951 57.2446 20 56.25 20ZM23.75 20H29.375C29.7065 20 30.0245 19.8683 30.2589 19.6339C30.4933 19.3995 30.625 19.0815 30.625 18.75C30.625 17.4239 31.1518 16.1521 32.0895 15.2145C33.0271 14.2768 34.2989 13.75 35.625 13.75C36.9511 13.75 38.2229 14.2768 39.1605 15.2145C40.0982 16.1521 40.625 17.4239 40.625 18.75C40.625 19.0815 40.7567 19.3995 40.9911 19.6339C41.2255 19.8683 41.5435 20 41.875 20H47.5V22.5H23.75V20ZM57.5 70C57.5 70.3315 57.3683 70.6495 57.1339 70.8839C56.8995 71.1183 56.5815 71.25 56.25 71.25H15C14.6685 71.25 14.3505 71.1183 14.1161 70.8839C13.8817 70.6495 13.75 70.3315 13.75 70V23.75C13.75 23.4185 13.8817 23.1005 14.1161 22.8661C14.3505 22.6317 14.6685 22.5 15 22.5H21.25V23.75C21.25 24.0815 21.3817 24.3995 21.6161 24.6339C21.8505 24.8683 22.1685 25 22.5 25H48.75C49.0815 25 49.3995 24.8683 49.6339 24.6339C49.8683 24.3995 50 24.0815 50 23.75V22.5H56.25C56.5815 22.5 56.8995 22.6317 57.1339 22.8661C57.3683 23.1005 57.5 23.4185 57.5 23.75V70Z" fill="#506CCF"/>
<path d="M26.25 30H20C19.6685 30 19.3505 30.1317 19.1161 30.3661C18.8817 30.6005 18.75 30.9185 18.75 31.25V37.5C18.75 37.8315 18.8817 38.1495 19.1161 38.3839C19.3505 38.6183 19.6685 38.75 20 38.75H26.25C26.5815 38.75 26.8995 38.6183 27.1339 38.3839C27.3683 38.1495 27.5 37.8315 27.5 37.5V31.25C27.5 30.9185 27.3683 30.6005 27.1339 30.3661C26.8995 30.1317 26.5815 30 26.25 30ZM25 36.25H21.25V32.5H25V36.25Z" fill="#506CCF"/>
<path d="M26.25 43.75H20C19.6685 43.75 19.3505 43.8817 19.1161 44.1161C18.8817 44.3505 18.75 44.6685 18.75 45V51.25C18.75 51.5815 18.8817 51.8995 19.1161 52.1339C19.3505 52.3683 19.6685 52.5 20 52.5H26.25C26.5815 52.5 26.8995 52.3683 27.1339 52.1339C27.3683 51.8995 27.5 51.5815 27.5 51.25V45C27.5 44.6685 27.3683 44.3505 27.1339 44.1161C26.8995 43.8817 26.5815 43.75 26.25 43.75ZM25 50H21.25V46.25H25V50Z" fill="#506CCF"/>
<path d="M26.25 57.5H20C19.6685 57.5 19.3505 57.6317 19.1161 57.8661C18.8817 58.1005 18.75 58.4185 18.75 58.75V65C18.75 65.3315 18.8817 65.6495 19.1161 65.8839C19.3505 66.1183 19.6685 66.25 20 66.25H26.25C26.5815 66.25 26.8995 66.1183 27.1339 65.8839C27.3683 65.6495 27.5 65.3315 27.5 65V58.75C27.5 58.4185 27.3683 58.1005 27.1339 57.8661C26.8995 57.6317 26.5815 57.5 26.25 57.5ZM25 63.75H21.25V60H25V63.75Z" fill="#506CCF"/>
<path d="M52.5 30H32.5C32.1685 30 31.8505 30.1317 31.6161 30.3661C31.3817 30.6005 31.25 30.9185 31.25 31.25V37.5C31.25 37.8315 31.3817 38.1495 31.6161 38.3839C31.8505 38.6183 32.1685 38.75 32.5 38.75H52.5C52.8315 38.75 53.1495 38.6183 53.3839 38.3839C53.6183 38.1495 53.75 37.8315 53.75 37.5V31.25C53.75 30.9185 53.6183 30.6005 53.3839 30.3661C53.1495 30.1317 52.8315 30 52.5 30ZM51.25 36.25H33.75V32.5H51.25V36.25Z" fill="#506CCF"/>
<path d="M52.5 43.75H32.5C32.1685 43.75 31.8505 43.8817 31.6161 44.1161C31.3817 44.3505 31.25 44.6685 31.25 45V51.25C31.25 51.5815 31.3817 51.8995 31.6161 52.1339C31.8505 52.3683 32.1685 52.5 32.5 52.5H52.5C52.8315 52.5 53.1495 52.3683 53.3839 52.1339C53.6183 51.8995 53.75 51.5815 53.75 51.25V45C53.75 44.6685 53.6183 44.3505 53.3839 44.1161C53.1495 43.8817 52.8315 43.75 52.5 43.75ZM51.25 50H33.75V46.25H51.25V50Z" fill="#506CCF"/>
<path d="M52.5 57.5H32.5C32.1685 57.5 31.8505 57.6317 31.6161 57.8661C31.3817 58.1005 31.25 58.4185 31.25 58.75V65C31.25 65.3315 31.3817 65.6495 31.6161 65.8839C31.8505 66.1183 32.1685 66.25 32.5 66.25H52.5C52.8315 66.25 53.1495 66.1183 53.3839 65.8839C53.6183 65.6495 53.75 65.3315 53.75 65V58.75C53.75 58.4185 53.6183 58.1005 53.3839 57.8661C53.1495 57.6317 52.8315 57.5 52.5 57.5ZM51.25 63.75H33.75V60H51.25V63.75Z" fill="#506CCF"/>
</svg>
