<svg width="176" height="37" viewBox="0 0 176 37" fill="none" xmlns="http://www.w3.org/2000/svg">
<path fill-rule="evenodd" clip-rule="evenodd" d="M0.822797 0.814053C1.91872 -0.27013 3.71339 -0.27013 4.80931 0.814053L15.0477 10.9428C16.1437 12.027 16.1437 13.8024 15.0477 14.8866C13.9518 15.9708 12.1571 15.9708 11.0612 14.8866L0.822797 4.75786C-0.273126 3.67368 -0.273126 1.89824 0.822797 0.814053Z" fill="#506CCF"/>
<path fill-rule="evenodd" clip-rule="evenodd" d="M16.7974 16.843C17.8933 15.7588 19.688 15.7588 20.7839 16.843L21.0266 17.0832C22.1226 18.1673 22.1226 19.9428 21.0266 21.0197C19.9307 22.1039 18.1361 22.1039 17.0401 21.0197L16.7974 20.7796C15.7015 19.7027 15.7015 17.9272 16.7974 16.843Z" fill="#506CCF" fill-opacity="0.65"/>
<path fill-rule="evenodd" clip-rule="evenodd" d="M22.8876 23.0644C23.9835 21.9802 25.7782 21.9802 26.8741 23.0644L35.1781 31.2358C36.274 32.3199 36.274 34.0954 35.1781 35.1796C34.0822 36.2637 32.2875 36.2637 31.1916 35.1796L22.8876 27.0082C21.7843 25.9313 21.7916 24.1558 22.8876 23.0644Z" fill="#506CCF" fill-opacity="0.65"/>
<path fill-rule="evenodd" clip-rule="evenodd" d="M15.4661 0.813137C16.562 -0.271046 18.3567 -0.271046 19.4526 0.813137L21.1958 2.53764C22.2917 3.62183 22.2917 5.39727 21.1958 6.48145C20.0999 7.56563 18.3052 7.56563 17.2093 6.48145L15.4661 4.75694C14.3702 3.67276 14.3702 1.89732 15.4661 0.813137Z" fill="#506CCF"/>
<path fill-rule="evenodd" clip-rule="evenodd" d="M22.8876 7.81314C23.9835 6.72895 25.7782 6.72895 26.8741 7.81314L35.1781 15.9845C36.274 17.0687 36.274 18.8442 35.1781 19.9283C34.0822 21.0125 32.2875 21.0125 31.1916 19.9283L22.8876 11.7569C21.7843 10.68 21.7916 8.9046 22.8876 7.81314Z" fill="#506CCF" fill-opacity="0.65"/>
<path fill-rule="evenodd" clip-rule="evenodd" d="M29.4483 0.813137C30.5442 -0.271046 32.3389 -0.271046 33.4275 0.813137L35.178 2.53764C36.2739 3.62183 36.2739 5.39727 35.178 6.48145C34.0821 7.56563 32.2874 7.56563 31.1915 6.48145L29.4483 4.75694C28.345 3.67276 28.345 1.89732 29.4483 0.813137Z" fill="#506CCF"/>
<path fill-rule="evenodd" clip-rule="evenodd" d="M6.19853 21.107C7.29445 20.0228 9.08912 20.0228 10.185 21.107L20.4235 31.243C21.5194 32.3272 21.5194 34.1027 20.4235 35.1869C19.3276 36.271 17.5329 36.271 16.437 35.1869L6.19853 25.0508C5.10261 23.9666 5.10261 22.1912 6.19853 21.107Z" fill="#506CCF"/>
<path fill-rule="evenodd" clip-rule="evenodd" d="M0.821943 15.9553C1.91787 14.8711 3.71253 14.8711 4.80846 15.9553L5.05118 16.1954C6.1471 17.2796 6.1471 19.0551 5.05118 20.1393C3.95525 21.2234 2.16059 21.2234 1.06466 20.1393L0.821943 19.8991C-0.273981 18.8077 -0.273981 17.0395 0.821943 15.9553Z" fill="#506CCF" fill-opacity="0.65"/>
<path fill-rule="evenodd" clip-rule="evenodd" d="M0.821943 29.5112C1.91787 28.4271 3.71253 28.4271 4.80846 29.5112L6.55164 31.243C7.64756 32.3272 7.64756 34.1027 6.55164 35.1868C5.45571 36.271 3.66105 36.271 2.56512 35.1868L0.821943 33.4551C-0.273981 32.3709 -0.273981 30.5954 0.821943 29.5112Z" fill="#506CCF"/>
<path d="M56.4775 17V6.2334H60.2656V4.31738H50.4219V6.2334H54.2188V17H56.4775ZM65.8889 6.1543H68.4025C69.8352 6.1543 70.7229 6.98047 70.7229 8.31641C70.7229 9.6875 69.8879 10.4873 68.4465 10.4873H65.8889V6.1543ZM65.8889 12.2275H68.341L70.8371 17H73.4211L70.6525 11.8848C72.1643 11.3398 73.0432 9.94238 73.0432 8.26367C73.0432 5.83789 71.3996 4.31738 68.6574 4.31738H63.6213V17H65.8889V12.2275ZM84.8803 15.084H78.9389V11.4629H84.5551V9.66113H78.9389V6.2334H84.8803V4.31738H76.6713V17H84.8803V15.084ZM96.858 15.084H90.9166V11.4629H96.5328V9.66113H90.9166V6.2334H96.858V4.31738H88.649V17H96.858V15.084ZM108.018 7.82422H108.106L110.699 17H112.835L116.236 4.31738H113.881L111.683 13.9238H111.613L109.064 4.31738H107.06L104.512 13.9238H104.441L102.244 4.31738H99.8885L103.29 17H105.426L108.018 7.82422ZM127.739 15.084H121.798V11.4629H127.414V9.66113H121.798V6.2334H127.739V4.31738H119.53V17H127.739V15.084ZM136.825 17C139.532 17 141.176 15.6289 141.176 13.3965C141.176 11.7178 139.972 10.4785 138.249 10.3115V10.2412C139.55 10.0303 140.561 8.84375 140.561 7.48145C140.561 5.55664 139.075 4.31738 136.773 4.31738H131.508V17H136.825ZM133.776 6.08398H136.201C137.555 6.08398 138.32 6.70801 138.32 7.81543C138.32 8.99316 137.432 9.66113 135.85 9.66113H133.776V6.08398ZM133.776 15.2334V11.2695H136.21C137.95 11.2695 138.864 11.9463 138.864 13.2383C138.864 14.5391 137.977 15.2334 136.307 15.2334H133.776Z" fill="black"/>
<path d="M52.0918 26.6465H53.8965C54.9102 26.6465 55.5254 27.2207 55.5254 28.1641C55.5254 29.1309 54.9453 29.6875 53.9316 29.6875H52.0918V26.6465ZM52.0918 30.748H53.8965L55.6191 34H57.1309L55.2383 30.543C56.2695 30.1973 56.8789 29.2715 56.8789 28.1289C56.8789 26.5527 55.7949 25.5449 54.0547 25.5449H50.7793V34H52.0918V30.748ZM64.7176 32.8633H60.6629V30.2383H64.5008V29.1484H60.6629V26.6758H64.7176V25.5449H59.3504V34H64.7176V32.8633ZM72.5152 32.8633H68.5777V25.5449H67.2652V34H72.5152V32.8633ZM76.1527 34V25.5449H74.8402V34H76.1527ZM84.4191 34H85.8078L82.7551 25.5449H81.3371L78.2844 34H79.6496L80.423 31.7148H83.6457L84.4191 34ZM82.0168 26.9512H82.052L83.3117 30.6602H80.757L82.0168 26.9512ZM91.332 34C93.1309 34 94.2148 33.0977 94.2148 31.6094C94.2148 30.4844 93.4414 29.6699 92.293 29.541V29.4941C93.1367 29.3535 93.7988 28.5508 93.7988 27.6543C93.7988 26.377 92.8145 25.5449 91.3145 25.5449H87.9395V34H91.332ZM89.252 26.6172H90.998C91.9473 26.6172 92.4863 27.0508 92.4863 27.8359C92.4863 28.6738 91.8594 29.1426 90.7227 29.1426H89.252V26.6172ZM89.252 32.9277V30.1445H90.9863C92.2285 30.1445 92.873 30.6133 92.873 31.5273C92.873 32.4414 92.2461 32.9277 91.0625 32.9277H89.252ZM101.796 32.8633H97.8582V25.5449H96.5457V34H101.796V32.8633ZM109.488 32.8633H105.433V30.2383H109.271V29.1484H105.433V26.6758H109.488V25.5449H104.121V34H109.488V32.8633ZM115.292 31.6797C115.374 33.1855 116.646 34.1406 118.556 34.1406C120.525 34.1406 121.779 33.1387 121.779 31.5449C121.779 30.3145 121.052 29.6055 119.282 29.2305L118.357 29.0371C117.261 28.8027 116.827 28.3926 116.827 27.7773C116.827 27.0039 117.554 26.5234 118.544 26.5234C119.57 26.5234 120.267 27.0449 120.349 27.8945H121.62C121.579 26.418 120.355 25.4043 118.562 25.4043C116.763 25.4043 115.491 26.4004 115.491 27.8477C115.491 29.0664 116.259 29.8516 117.952 30.209L118.872 30.4023C120.003 30.6484 120.448 31.0586 120.448 31.7148C120.448 32.4707 119.681 33.0215 118.609 33.0215C117.484 33.0215 116.687 32.5176 116.57 31.6797H115.292ZM125.475 25.5449H124.162V31.0293C124.162 32.8516 125.463 34.1406 127.584 34.1406C129.705 34.1406 131.006 32.8516 131.006 31.0293V25.5449H129.699V30.918C129.699 32.125 128.932 32.9746 127.584 32.9746C126.236 32.9746 125.475 32.125 125.475 30.918V25.5449ZM133.764 25.5449V34H135.077V31.1113H136.893C138.552 31.1113 139.718 29.9746 139.718 28.3223C139.718 26.6758 138.575 25.5449 136.934 25.5449H133.764ZM135.077 26.6523H136.589C137.725 26.6523 138.376 27.2617 138.376 28.3281C138.376 29.3945 137.725 30.0098 136.583 30.0098H135.077V26.6523ZM142.066 25.5449V34H143.379V31.1113H145.195C146.853 31.1113 148.019 29.9746 148.019 28.3223C148.019 26.6758 146.877 25.5449 145.236 25.5449H142.066ZM143.379 26.6523H144.89C146.027 26.6523 146.677 27.2617 146.677 28.3281C146.677 29.3945 146.027 30.0098 144.884 30.0098H143.379V26.6523ZM154.024 25.4043C151.586 25.4043 150.063 27.0859 150.063 29.7754C150.063 32.4648 151.586 34.1406 154.024 34.1406C156.455 34.1406 157.985 32.4648 157.985 29.7754C157.985 27.0859 156.455 25.4043 154.024 25.4043ZM154.024 26.5586C155.629 26.5586 156.637 27.8008 156.637 29.7754C156.637 31.7441 155.629 32.9863 154.024 32.9863C152.418 32.9863 151.405 31.7441 151.405 29.7754C151.405 27.8008 152.418 26.5586 154.024 26.5586ZM161.751 26.6465H163.556C164.57 26.6465 165.185 27.2207 165.185 28.1641C165.185 29.1309 164.605 29.6875 163.591 29.6875H161.751V26.6465ZM161.751 30.748H163.556L165.279 34H166.79L164.898 30.543C165.929 30.1973 166.538 29.2715 166.538 28.1289C166.538 26.5527 165.454 25.5449 163.714 25.5449H160.439V34H161.751V30.748ZM172.42 34V26.6758H175.004V25.5449H168.518V26.6758H171.107V34H172.42Z" fill="#9EA6B7"/>
</svg>
